<mxfile host="app.diagrams.net" modified="2023-12-03T15:31:43.796Z" agent="Mozilla/5.0 (Windows NT 10.0; Win64; x64) AppleWebKit/537.36 (KHTML, like Gecko) Chrome/119.0.0.0 Safari/537.36 Edg/119.0.0.0" etag="U1SDH3aFGraS93e7F7J0" version="22.1.5" type="github">
  <diagram id="C5RBs43oDa-KdzZeNtuy" name="Page-1">
    <mxGraphModel dx="983" dy="541" grid="0" gridSize="10" guides="1" tooltips="1" connect="1" arrows="1" fold="1" page="1" pageScale="1" pageWidth="827" pageHeight="1169" math="0" shadow="0">
      <root>
        <mxCell id="WIyWlLk6GJQsqaUBKTNV-0" />
        <mxCell id="WIyWlLk6GJQsqaUBKTNV-1" parent="WIyWlLk6GJQsqaUBKTNV-0" />
        <mxCell id="oDXYZSLQA8dlUkF3rfFF-14" value="" style="edgeStyle=orthogonalEdgeStyle;rounded=0;orthogonalLoop=1;jettySize=auto;html=1;" edge="1" parent="WIyWlLk6GJQsqaUBKTNV-1" source="WIyWlLk6GJQsqaUBKTNV-3" target="oDXYZSLQA8dlUkF3rfFF-2">
          <mxGeometry relative="1" as="geometry" />
        </mxCell>
        <mxCell id="WIyWlLk6GJQsqaUBKTNV-3" value="&lt;font style=&quot;font-size: 18px;&quot;&gt;Physical locations of items&lt;/font&gt;" style="rounded=1;whiteSpace=wrap;html=1;fontSize=12;glass=0;strokeWidth=1;shadow=0;fillColor=#f5f5f5;fontColor=#333333;strokeColor=#666666;" parent="WIyWlLk6GJQsqaUBKTNV-1" vertex="1">
          <mxGeometry x="160" y="80" width="380" height="40" as="geometry" />
        </mxCell>
        <mxCell id="oDXYZSLQA8dlUkF3rfFF-2" value="&lt;font style=&quot;font-size: 14px;&quot;&gt;Early&lt;br&gt;Signals&lt;/font&gt;" style="rounded=1;whiteSpace=wrap;html=1;fillColor=#d5e8d4;strokeColor=#82b366;" vertex="1" parent="WIyWlLk6GJQsqaUBKTNV-1">
          <mxGeometry x="280" y="190" width="140" height="50" as="geometry" />
        </mxCell>
        <mxCell id="oDXYZSLQA8dlUkF3rfFF-3" value="&lt;font style=&quot;font-size: 14px;&quot;&gt;Whole &lt;br&gt;Pattern&lt;/font&gt;" style="rounded=1;whiteSpace=wrap;html=1;fillColor=#f8cecc;strokeColor=#b85450;" vertex="1" parent="WIyWlLk6GJQsqaUBKTNV-1">
          <mxGeometry x="160" y="250" width="90" height="60" as="geometry" />
        </mxCell>
        <mxCell id="oDXYZSLQA8dlUkF3rfFF-22" value="" style="edgeStyle=orthogonalEdgeStyle;rounded=0;orthogonalLoop=1;jettySize=auto;html=1;exitX=0.448;exitY=1.017;exitDx=0;exitDy=0;exitPerimeter=0;" edge="1" parent="WIyWlLk6GJQsqaUBKTNV-1" source="oDXYZSLQA8dlUkF3rfFF-3" target="oDXYZSLQA8dlUkF3rfFF-12">
          <mxGeometry relative="1" as="geometry">
            <Array as="points">
              <mxPoint x="200" y="440" />
              <mxPoint x="360" y="440" />
            </Array>
          </mxGeometry>
        </mxCell>
        <mxCell id="oDXYZSLQA8dlUkF3rfFF-33" value="" style="edgeStyle=orthogonalEdgeStyle;rounded=0;orthogonalLoop=1;jettySize=auto;html=1;" edge="1" parent="WIyWlLk6GJQsqaUBKTNV-1" source="oDXYZSLQA8dlUkF3rfFF-5" target="oDXYZSLQA8dlUkF3rfFF-12">
          <mxGeometry relative="1" as="geometry">
            <Array as="points">
              <mxPoint x="290" y="440" />
              <mxPoint x="360" y="440" />
            </Array>
          </mxGeometry>
        </mxCell>
        <mxCell id="oDXYZSLQA8dlUkF3rfFF-5" value="&lt;font style=&quot;font-size: 14px;&quot;&gt;Late&lt;br&gt;Signals&lt;/font&gt;" style="rounded=1;whiteSpace=wrap;html=1;fillColor=#d5e8d4;strokeColor=#82b366;" vertex="1" parent="WIyWlLk6GJQsqaUBKTNV-1">
          <mxGeometry x="250" y="330" width="80" height="60" as="geometry" />
        </mxCell>
        <mxCell id="oDXYZSLQA8dlUkF3rfFF-23" value="" style="edgeStyle=orthogonalEdgeStyle;rounded=0;orthogonalLoop=1;jettySize=auto;html=1;" edge="1" parent="WIyWlLk6GJQsqaUBKTNV-1" source="oDXYZSLQA8dlUkF3rfFF-6" target="oDXYZSLQA8dlUkF3rfFF-12">
          <mxGeometry relative="1" as="geometry">
            <Array as="points">
              <mxPoint x="400" y="440" />
              <mxPoint x="360" y="440" />
            </Array>
          </mxGeometry>
        </mxCell>
        <mxCell id="oDXYZSLQA8dlUkF3rfFF-6" value="&lt;font style=&quot;font-size: 14px;&quot;&gt;Sum of additional components&lt;/font&gt;" style="rounded=1;whiteSpace=wrap;html=1;fillColor=#d5e8d4;strokeColor=#82b366;" vertex="1" parent="WIyWlLk6GJQsqaUBKTNV-1">
          <mxGeometry x="340" y="330" width="120" height="60" as="geometry" />
        </mxCell>
        <mxCell id="oDXYZSLQA8dlUkF3rfFF-7" value="&lt;font style=&quot;font-size: 14px;&quot;&gt;Categorical &lt;br&gt;memory&lt;/font&gt;" style="rounded=1;whiteSpace=wrap;html=1;fillColor=#dae8fc;strokeColor=#6c8ebf;" vertex="1" parent="WIyWlLk6GJQsqaUBKTNV-1">
          <mxGeometry x="460" y="250" width="80" height="60" as="geometry" />
        </mxCell>
        <mxCell id="oDXYZSLQA8dlUkF3rfFF-10" value="&lt;font style=&quot;font-size: 18px;&quot;&gt;Predicted response&lt;/font&gt;" style="rounded=1;whiteSpace=wrap;html=1;fontSize=12;glass=0;strokeWidth=1;shadow=0;fillColor=#f5f5f5;fontColor=#333333;strokeColor=#666666;" vertex="1" parent="WIyWlLk6GJQsqaUBKTNV-1">
          <mxGeometry x="170" y="545" width="380" height="40" as="geometry" />
        </mxCell>
        <mxCell id="oDXYZSLQA8dlUkF3rfFF-11" value="" style="endArrow=classic;html=1;rounded=0;exitX=0.121;exitY=1;exitDx=0;exitDy=0;exitPerimeter=0;entryX=0.5;entryY=0;entryDx=0;entryDy=0;" edge="1" parent="WIyWlLk6GJQsqaUBKTNV-1">
          <mxGeometry width="50" height="50" relative="1" as="geometry">
            <mxPoint x="200.98000000000002" y="120" as="sourcePoint" />
            <mxPoint x="200" y="250" as="targetPoint" />
          </mxGeometry>
        </mxCell>
        <mxCell id="oDXYZSLQA8dlUkF3rfFF-13" value="" style="edgeStyle=orthogonalEdgeStyle;rounded=0;orthogonalLoop=1;jettySize=auto;html=1;" edge="1" parent="WIyWlLk6GJQsqaUBKTNV-1" source="oDXYZSLQA8dlUkF3rfFF-12" target="oDXYZSLQA8dlUkF3rfFF-10">
          <mxGeometry relative="1" as="geometry" />
        </mxCell>
        <mxCell id="oDXYZSLQA8dlUkF3rfFF-12" value="&lt;font style=&quot;font-size: 18px;&quot;&gt;Final process&lt;/font&gt;" style="rounded=1;whiteSpace=wrap;html=1;fontSize=12;glass=0;strokeWidth=1;shadow=0;fillColor=#f5f5f5;fontColor=#333333;strokeColor=#666666;" vertex="1" parent="WIyWlLk6GJQsqaUBKTNV-1">
          <mxGeometry x="170" y="480" width="380" height="40" as="geometry" />
        </mxCell>
        <mxCell id="oDXYZSLQA8dlUkF3rfFF-15" value="" style="endArrow=classic;html=1;rounded=0;exitX=0.121;exitY=1;exitDx=0;exitDy=0;exitPerimeter=0;entryX=0.5;entryY=0;entryDx=0;entryDy=0;" edge="1" parent="WIyWlLk6GJQsqaUBKTNV-1">
          <mxGeometry width="50" height="50" relative="1" as="geometry">
            <mxPoint x="500.49" y="120" as="sourcePoint" />
            <mxPoint x="499.51" y="250" as="targetPoint" />
          </mxGeometry>
        </mxCell>
        <mxCell id="oDXYZSLQA8dlUkF3rfFF-16" value="" style="endArrow=classic;html=1;rounded=0;exitX=0.121;exitY=1;exitDx=0;exitDy=0;exitPerimeter=0;" edge="1" parent="WIyWlLk6GJQsqaUBKTNV-1">
          <mxGeometry width="50" height="50" relative="1" as="geometry">
            <mxPoint x="290.49" y="240" as="sourcePoint" />
            <mxPoint x="290" y="330" as="targetPoint" />
          </mxGeometry>
        </mxCell>
        <mxCell id="oDXYZSLQA8dlUkF3rfFF-17" value="" style="endArrow=classic;html=1;rounded=0;exitX=0.121;exitY=1;exitDx=0;exitDy=0;exitPerimeter=0;" edge="1" parent="WIyWlLk6GJQsqaUBKTNV-1">
          <mxGeometry width="50" height="50" relative="1" as="geometry">
            <mxPoint x="400.49" y="240" as="sourcePoint" />
            <mxPoint x="400" y="330" as="targetPoint" />
          </mxGeometry>
        </mxCell>
        <mxCell id="oDXYZSLQA8dlUkF3rfFF-46" value="" style="line;strokeWidth=1;direction=south;html=1;" vertex="1" parent="WIyWlLk6GJQsqaUBKTNV-1">
          <mxGeometry x="495" y="310" width="10" height="130" as="geometry" />
        </mxCell>
        <mxCell id="oDXYZSLQA8dlUkF3rfFF-49" value="" style="line;strokeWidth=1;html=1;" vertex="1" parent="WIyWlLk6GJQsqaUBKTNV-1">
          <mxGeometry x="400" y="440" width="100" as="geometry" />
        </mxCell>
        <mxCell id="oDXYZSLQA8dlUkF3rfFF-52" value="" style="endArrow=none;html=1;rounded=0;exitX=0.01;exitY=0;exitDx=0;exitDy=0;exitPerimeter=0;entryX=1;entryY=0.5;entryDx=0;entryDy=0;entryPerimeter=0;" edge="1" parent="WIyWlLk6GJQsqaUBKTNV-1" source="oDXYZSLQA8dlUkF3rfFF-49" target="oDXYZSLQA8dlUkF3rfFF-49">
          <mxGeometry width="50" height="50" relative="1" as="geometry">
            <mxPoint x="410" y="470" as="sourcePoint" />
            <mxPoint x="460" y="420" as="targetPoint" />
            <Array as="points">
              <mxPoint x="410" y="440" />
            </Array>
          </mxGeometry>
        </mxCell>
      </root>
    </mxGraphModel>
  </diagram>
</mxfile>
